<svg width="46" height="47" viewBox="0 0 46 47" fill="none" xmlns="http://www.w3.org/2000/svg">
<path d="M22.9987 27.1366C27.2269 27.1366 30.6654 23.6981 30.6654 19.4699C30.6654 15.2417 27.2269 11.8032 22.9987 11.8032C18.7705 11.8032 15.332 15.2417 15.332 19.4699C15.332 23.6981 18.7705 27.1366 22.9987 27.1366ZM22.9987 15.6366C25.1128 15.6366 26.832 17.3558 26.832 19.4699C26.832 21.584 25.1128 23.3032 22.9987 23.3032C20.8846 23.3032 19.1654 21.584 19.1654 19.4699C19.1654 17.3558 20.8846 15.6366 22.9987 15.6366Z" fill="white"/>
<path d="M21.8898 42.1133C22.2142 42.345 22.6029 42.4695 23.0015 42.4695C23.4001 42.4695 23.7887 42.345 24.1131 42.1133C24.6958 41.7012 38.3904 31.8131 38.3348 19.4698C38.3348 11.0154 31.4559 4.13647 23.0015 4.13647C14.5471 4.13647 7.66814 11.0154 7.66814 19.4602C7.61255 31.8131 21.3071 41.7012 21.8898 42.1133ZM23.0015 7.96981C29.3437 7.96981 34.5015 13.1276 34.5015 19.4794C34.5417 27.9856 26.0911 35.6235 23.0015 38.1286C19.9137 35.6216 11.4612 27.9817 11.5015 19.4698C11.5015 13.1276 16.6592 7.96981 23.0015 7.96981Z" fill="white"/>
</svg>
