<svg width="26" height="33" viewBox="0 0 26 33" fill="none" xmlns="http://www.w3.org/2000/svg">
<g clip-path="url(#clip0_67_7924)">
<path d="M13.0013 19.884C16.4941 19.884 19.3346 17.0435 19.3346 13.5506C19.3346 10.0578 16.4941 7.21729 13.0013 7.21729C9.50847 7.21729 6.66797 10.0578 6.66797 13.5506C6.66797 17.0435 9.50847 19.884 13.0013 19.884ZM13.0013 10.384C14.7477 10.384 16.168 11.8042 16.168 13.5506C16.168 15.297 14.7477 16.7173 13.0013 16.7173C11.2549 16.7173 9.83464 15.297 9.83464 13.5506C9.83464 11.8042 11.2549 10.384 13.0013 10.384Z" fill="#2091F9"/>
<path d="M11.7485 32.2562C12.0164 32.4476 12.3375 32.5504 12.6668 32.5504C12.9961 32.5504 13.3172 32.4476 13.5851 32.2562C14.0665 31.9158 25.3794 23.7474 25.3335 13.5507C25.3335 6.56662 19.6509 0.884033 12.6668 0.884033C5.68272 0.884033 0.000139393 6.56662 0.000139393 13.5428C-0.0457773 23.7474 11.2671 31.9158 11.7485 32.2562ZM12.6668 4.0507C17.9061 4.0507 22.1668 8.31145 22.1668 13.5586C22.2001 20.5854 15.2191 26.895 12.6668 28.9644C10.1161 26.8934 3.13356 20.5823 3.16681 13.5507C3.16681 8.31145 7.42756 4.0507 12.6668 4.0507Z" fill="#2091F9"/>
</g>
<defs>
<clipPath id="clip0_67_7924">
<rect width="26" height="32" fill="white" transform="translate(0 0.717285)"/>
</clipPath>
</defs>
</svg>
